<?xml version="1.0"?>
<svg xmlns="http://www.w3.org/2000/svg" height="512px" viewBox="-6 0 512 512.001" width="512px"><g><path d="m39.613281 290.6875c3.257813 2.832031 6.78125 5.382812 10.511719 7.675781l-9.125 9.917969c-1.320312 1.4375-1.226562 3.671875.210938 4.992188.675781.625 1.535156.9375 2.390624.9375.953126 0 1.90625-.386719 2.601563-1.144532l10.265625-11.15625c6.242188 3.132813 12.980469 5.5625 20.066406 7.269532l-5.117187 8.617187c-.996094 1.675781-.445313 3.847656 1.234375 4.84375.566406.335937 1.1875.496094 1.800781.496094 1.207031 0 2.382813-.617188 3.042969-1.730469l6.375-10.734375c5.757812.945313 11.703125 1.433594 17.769531 1.433594 1.757813 0 3.523437-.050781 5.296875-.132813l-2.621094 12.027344c-.414062 1.90625.792969 3.789062 2.703125 4.207031.253907.054688.507813.082031.753907.082031 1.628906 0 3.089843-1.128906 3.453124-2.78125l3.070313-14.097656c.097656-.011718.199219-.019531.296875-.03125 5.414062-.601562 10.855469-1.558594 16.371094-2.859375l-.300782 11.796875c-.046874 1.953125 1.492188 3.574219 3.445313 3.625h.089844c1.910156 0 3.484375-1.523437 3.53125-3.445312l.351562-13.855469c5.941407-1.714844 11.988281-3.847656 18.1875-6.410156l1.914063 11.980469c.277344 1.738281 1.78125 2.980468 3.488281 2.980468.183594 0 .371094-.015625.558594-.046875 1.929687-.308593 3.242187-2.121093 2.933593-4.046875l-2.195312-13.769531c3.640625-1.65625 7.34375-3.46875 11.113281-5.421875l3.925781 13.144531c.457032 1.535157 1.863282 2.523438 3.386719 2.523438.332031 0 .675781-.046875 1.011719-.148438 1.871094-.558593 2.933594-2.527343 2.375-4.398437l-4.339844-14.527344c2.421875-1.335938 4.859375-2.710938 7.34375-4.167969 2.503906-1.464843 4.933594-2.945312 7.324219-4.433593l3.566406 8.445312c.570313 1.347656 1.878907 2.160156 3.257813 2.160156.457031 0 .921875-.089844 1.371094-.277344 1.800781-.761718 2.640624-2.835937 1.882812-4.632812l-4.027344-9.539062c5.074219-3.320313 9.878906-6.699219 14.449219-10.132813l5.480469 9.5c.652344 1.136719 1.84375 1.769531 3.066406 1.769531.597656 0 1.203125-.152344 1.761719-.472656 1.691406-.972656 2.269531-3.132812 1.296875-4.824219l-5.957032-10.335937c5.894532-4.714844 11.34375-9.554688 16.390626-14.539063l8.832031 11.582031c.695312.914063 1.746093 1.394532 2.8125 1.394532.746093 0 1.5-.238282 2.140625-.726563 1.550781-1.179687 1.851562-3.398437.667968-4.953125l-9.464843-12.414062c1.636719-1.746094 3.242187-3.507813 4.789062-5.289063 2.21875-2.5625 4.335938-5.167969 6.359375-7.808593l10.152344 9.515624c.683594.640626 1.550781.957032 2.417969.957032.941406 0 1.882812-.375 2.578125-1.117188 1.335937-1.425781 1.261718-3.664062-.160156-4.996094l-10.792969-10.117187c4.820312-6.910156 8.976562-14.042969 12.421875-21.324219l11.4375 5.703125c.507812.253907 1.042968.375 1.574218.375 1.296876 0 2.546876-.71875 3.167969-1.960937.867188-1.746094.160157-3.867188-1.585937-4.738282l-11.71875-5.847656c3.175781-7.71875 5.5625-15.570312 7.113281-23.464844l16 4.886719c.34375.105469.691406.152344 1.03125.152344 1.515625 0 2.914063-.976563 3.378906-2.5.570313-1.867187-.480469-3.84375-2.347656-4.414063l-16.898437-5.160156c.847656-6.394531 1.148437-12.875.933593-19.378906h11.613281c1.949219 0 3.53125-1.582031 3.53125-3.535156 0-1.949219-1.582031-3.535156-3.53125-3.535156h-12.050781c-.667969-7.324219-2.003906-14.632813-3.960937-21.828126l12.378906-4.640624c1.828125-.683594 2.753906-2.722657 2.070312-4.550782-.683593-1.824218-2.722656-2.753906-4.550781-2.066406l-11.941406 4.476562c-2.144531-6.480468-4.8125-12.832031-7.972656-18.976562l11.558593-5.617188c1.757813-.855468 2.488282-2.96875 1.636719-4.722656-.851562-1.757812-2.96875-2.488281-4.722656-1.636718l-11.875 5.769531c-1.65625-2.835938-3.417969-5.625-5.292969-8.351563-1.816406-2.640625-3.746094-5.21875-5.757812-7.746094l14.363281-11.535156c1.523437-1.222656 1.765625-3.449218.542969-4.972656-1.21875-1.519531-3.445313-1.761719-4.96875-.542969l-14.484375 11.636719c-4.496094-5.089844-9.394531-9.902344-14.644531-14.398438l11.34375-14.222656c1.214843-1.527344.964843-3.75-.5625-4.96875-1.523438-1.214844-3.75-.964844-4.964844.5625l-11.285156 14.148438c-4.3125-3.359375-8.835938-6.503906-13.542969-9.433594l10.285156-17.457031c.992187-1.679688.433594-3.847657-1.25-4.839844s-3.851563-.429687-4.839844 1.25l-10.273437 17.433594c-1.417969-.800781-2.851563-1.582031-4.296875-2.339844-4.210938-2.203125-8.476563-3.878906-12.753907-5.136719l4.039063-15.574218c.492187-1.890626-.644531-3.820313-2.53125-4.308594-1.890625-.492188-3.820313.644531-4.3125 2.53125l-4.066406 15.683594c-5.585938-1.085938-11.164063-1.539063-16.636719-1.578126v-16.816406c0-1.953125-1.582031-3.535156-3.535156-3.535156s-3.535156 1.582031-3.535156 3.535156v16.984375c-5.503907.292969-10.863282.921875-15.972657 1.664063-2.117187.304687-4.210937.691406-6.289062 1.140625l-2.945313-15.582031c-.359375-1.917969-2.210937-3.175782-4.128906-2.816407s-3.179688 2.210938-2.816406 4.128907l3.027344 16.035156c-5.9375 1.78125-11.652344 4.160156-17.03125 7.089844-3.117188-4.105469-5.371094-8.875-6.527344-13.898438-.4375-1.902344-2.335938-3.09375-4.238282-2.652344-1.902343.4375-3.089843 2.335938-2.652343 4.238282 1.324219 5.738281 3.832031 11.207031 7.308593 15.960937-1.46875.964844-2.90625 1.96875-4.3125 3.019531-4.050781 3.035156-7.808593 6.421875-11.253906 10.09375l-10.34375-12.539062c-1.242187-1.507813-3.46875-1.722656-4.976562-.480469-1.503906 1.242187-1.71875 3.46875-.476563 4.976563l11.105469 13.46875c-3.65625 4.597656-6.855469 9.546874-9.554688 14.757812l-10.191406-7.507812c-1.570312-1.160157-3.78125-.824219-4.941406.746093-1.15625 1.570313-.820312 3.785157.75 4.941407l11.328125 8.351562c-2.269531 5.394531-4.011719 11.011719-5.183594 16.757812l-13.730469-7.257812c-1.726562-.910156-3.863281-.253906-4.777343 1.472656-.910157 1.726563-.253907 3.863282 1.472656 4.777344l15.859375 8.382812c-.210938 1.824219-.371094 3.652344-.464844 5.488282-.257812 5.117187-.074218 10.277344.105469 15.269531 0 .089844.003906.175781.007813.261719l-20.429688-4.679688c-1.90625-.4375-3.796875.75-4.234375 2.652344-.433594 1.90625.753906 3.800781 2.65625 4.238281l22.210937 5.089844c.085938 6.3125-.1875 12.390625-1.722656 18.304687-.355468 1.371094-.789062 2.707032-1.261718 4.019532l-14.648438-4.746094c-1.851562-.597656-3.847656.417969-4.453125 2.273438-.601563 1.859374.417969 3.851562 2.273437 4.453124l13.964844 4.523438c-2.554687 4.871094-5.832031 9.414062-9.507812 13.847656l-12.515625-5.988281c-1.757813-.84375-3.867188-.097656-4.710938 1.664063-.84375 1.761718-.097656 3.871093 1.660157 4.714843l10.761718 5.148438c-2.007812 2.226562-4.078125 4.449219-6.171875 6.695312-1.957031 2.09375-3.921875 4.207031-5.859375 6.347657l-11.511718-7.652344c-1.625-1.082032-3.820313-.640625-4.898438.984375-1.082031 1.625-.640625 3.820312.984375 4.902343l10.726563 7.128907c-3.765626 4.480469-7.261719 9.167969-10.160157 14.230469l-11.289062-4.980469c-1.789063-.789063-3.871094.019531-4.660157 1.804687-.789062 1.785156.019532 3.875 1.808594 4.660156l10.957032 4.835938c-.261719.597656-.519532 1.195312-.761719 1.800781-2.023438 5.105469-3.21875 10.527344-3.652344 16.074219l-11.726563-.535156c-1.957031-.082032-3.601562 1.421875-3.69140575 3.371094-.08593745 1.953124 1.42187475 3.605468 3.37109375 3.691406l11.90625.542968c.195312 5.398438 1.074219 10.84375 2.601562 16.171876l-14.691406 3.714843c-1.890625.476563-3.039062 2.398438-2.558594 4.292969.40625 1.601562 1.84375 2.667969 3.425782 2.667969.285156 0 .578125-.035157.867187-.109375l15.242188-3.851563c2.339843 5.894531 5.492187 11.542969 9.371093 16.714844l-14.890624 11.167969c-1.558594 1.167968-1.875 3.386718-.707032 4.945312.695313.925782 1.757813 1.414063 2.832032 1.414063.738281 0 1.480468-.226563 2.117187-.707031l15.164063-11.371094c1.746093 1.898437 3.59375 3.707031 5.558593 5.410156zm9.292969-102.847656c10.894531-11.675782 22.160156-23.75 26.285156-39.648438 2.402344-9.242187 2.0625-18.722656 1.734375-27.894531-.175781-4.84375-.355469-9.851563-.109375-14.660156 1.214844-23.921875 13.386719-46.773438 32.558594-61.128907 10.746094-8.046874 23.671875-13.351562 37.375-15.328124 17.015625-2.460938 36.855469-3.691407 55.011719 5.816406 21.183593 11.089844 39.089843 26.710937 51.792969 45.167968 17.777343 25.835938 25.273437 57.398438 20.566406 86.59375-3.664063 22.710938-14.742188 45.265626-32.039063 65.222657-12.277343 14.164062-27.632812 27.113281-46.679687 39.367187-.019532.007813-.039063.011719-.054688.019532-.394531.164062-.730468.402343-1.027344.675781-3.265624 2.082031-6.625 4.148437-10.109374 6.191406-26.246094 15.394531-48.617188 23.695313-70.398438 26.121094-20.292969 2.253906-39.71875-1.148438-55.484375-9.433594-.039063-.042969-.070313-.089844-.113281-.132813-.496094-.453124-1.085938-.726562-1.699219-.851562-4.417969-2.472656-8.527344-5.339844-12.265625-8.585938-19.230469-16.707031-27.054688-44.324218-18.601562-65.667968 4.757812-12.011719 14.164062-22.09375 23.257812-31.84375zm0 0" data-original="#000000" class="active-path" data-old_color="#000000" fill="#00558C"/><path d="m59.277344 277.804688c13.445312 12.125 32.035156 18.703124 52.167968 18.703124 3.585938 0 7.222657-.210937 10.886719-.632812 19.113281-2.207031 38.597657-9.675781 61.3125-23.507812 20.917969-12.738282 37.234375-26.289063 49.875-41.425782 15.199219-18.203125 24.945313-38.847656 28.1875-59.703125 4.179688-26.90625-2.449219-55.949219-18.183593-79.683593-11.179688-16.867188-26.921876-31.125-45.515626-41.230469-16.800781-9.132813-34.644531-8.027344-49.882812-5.746094-12.515625 1.878906-24.328125 6.910156-34.164062 14.554687-17.484376 13.589844-28.585938 35.210938-29.695313 57.832032-.214844 4.441406-.0625 8.917968.085937 13.246094.273438 7.820312.527344 15.210937-1.246093 22.292968-3.042969 12.160156-11.484375 21.554688-20.421875 31.5-7.988282 8.890625-16.25 18.078125-20.660156 29.632813-7.996094 20.953125-.738282 47.941406 17.253906 64.167969zm-10.648438-61.648438c3.941406-10.324219 11.40625-18.628906 19.3125-27.425781 9.121094-10.148438 18.554688-20.644531 22.023438-34.507813 2.015625-8.050781 1.730468-16.289062 1.453125-24.253906-.144531-4.183594-.292969-8.507812-.089844-12.660156 1.007813-20.589844 11.089844-40.25 26.972656-52.59375 8.878907-6.902344 19.554688-11.445313 30.875-13.144532 5.578125-.835937 11.523438-1.507812 17.597657-1.507812 9.257812 0 18.824218 1.558594 27.863281 6.472656 17.582031 9.558594 32.453125 23.019532 43 38.929688 14.769531 22.277344 20.996093 49.503906 17.085937 74.6875-3.042968 19.589844-12.25 39.042968-26.625 56.257812-12.136718 14.535156-27.882812 27.59375-48.128906 39.921875-21.8125 13.277344-40.382812 20.433594-58.449219 22.519531-22.21875 2.566407-43.175781-3.375-57.503906-16.292968-15.914063-14.351563-22.382813-38.070313-15.386719-56.402344zm0 0" data-original="#000000" class="active-path" data-old_color="#000000" fill="#00558C"/><path d="m472.785156 274.320312c-20.90625-26.460937-59.402344-51.71875-98.289062-48.480468-15.621094 1.300781-32.40625 7.714844-48.539063 18.554687-14.15625 9.507813-27.480469 22.246094-37.527343 35.867188-18.886719 25.605469-28.863282 57.222656-28.085938 89.03125 1.035156 42.433593 21.992188 81.273437 54.691406 101.359375 16.992188 10.4375 37.21875 15.730468 57.921875 15.726562 16.390625 0 33.082031-3.320312 48.6875-10.03125 36.703125-15.792968 65.597657-49.664062 75.402344-88.398437s.507813-82.273438-24.261719-113.628907zm17.410156 111.894532c-9.277343 36.648437-36.617187 68.695312-71.34375 83.636718-14.734374 6.339844-30.46875 9.472657-45.914062 9.472657-19.394531 0-38.324219-4.945313-54.203125-14.695313-30.683594-18.847656-50.347656-55.441406-51.324219-95.507812-.738281-30.246094 8.746094-60.316406 26.707032-84.664063 26.007812-35.261719 59.867187-49.820312 80.964843-51.570312 2.011719-.167969 4.027344-.25 6.042969-.25 34.101562 0 68.082031 23.246093 86.113281 46.066406 23.4375 29.664063 32.234375 70.859375 22.957031 107.511719zm0 0" data-original="#000000" class="active-path" data-old_color="#000000" fill="#00558C"/><path d="m375.367188 244.839844c-13.367188 1.109375-27.71875 6.59375-41.507813 15.855468-12.078125 8.117188-23.453125 18.988282-32.027344 30.613282-16.121093 21.855468-24.636719 48.847656-23.972656 76 .882813 36.246094 18.792969 69.421875 46.738281 86.585937 14.527344 8.921875 31.816406 13.449219 49.507813 13.449219 14.003906 0 28.261719-2.839844 41.589843-8.570312 31.347657-13.488282 56.019532-42.414063 64.394532-75.492188 8.375-33.082031.433594-70.261719-20.71875-97.035156-17.859375-22.601563-50.75-44.167969-84.003906-41.40625zm97.871093 136.707031c-7.847656 30.992187-30.964843 58.09375-60.335937 70.730469-28.085938 12.082031-60.507813 10.394531-84.605469-4.40625-25.925781-15.921875-42.546875-46.859375-43.371094-80.734375-.625-25.59375 7.402344-51.03125 22.597657-71.632813 14.835937-20.113281 41.75-41.402344 68.429687-43.621094 30.464844-2.53125 61.726563 18.308594 77.871094 38.742188 19.820312 25.089844 27.257812 59.925781 19.414062 90.921875zm0 0" data-original="#000000" class="active-path" data-old_color="#000000" fill="#00558C"/><path d="m373.886719 164.652344c7.65625 3.523437 16.449219 5.296875 25.824219 5.296875 7.269531 0 14.886718-1.066407 22.585937-3.214844 14.917969-4.160156 26.007813-11.488281 32.074219-21.195313 6.382812-10.222656 7.75-24.039062 3.742187-37.910156-5.183593-17.933594-18.363281-33.382812-35.261719-41.324218-13.9375-6.546876-41.363281-11.75-55.625 2.171874-12.679687 12.382813-25.523437 27.945313-24.632812 49.480469.820312 19.6875 13.394531 38.453125 31.292969 46.695313zm-1.71875-91.121094c5.066406-4.945312 12.726562-6.832031 20.800781-6.832031 9.582031 0 19.753906 2.65625 26.878906 6.003906 15.082032 7.085937 26.847656 20.878906 31.472656 36.890625 3.453126 11.941406 2.378907 23.679688-2.945312 32.203125-6.460938 10.335937-18.777344 15.5625-27.976562 18.128906-16.011719 4.464844-31.480469 3.863281-43.554688-1.695312-15.550781-7.160157-26.472656-23.460938-27.183594-40.566407-.4375-10.527343 1.894532-24.007812 22.507813-44.132812zm0 0" data-original="#000000" class="active-path" data-old_color="#000000" fill="#00558C"/><path d="m108.625 233.789062h.03125c7.140625 0 14.636719-3.410156 20.558594-9.363281 7.351562-7.386719 11.347656-17.617187 10.683594-27.363281-.710938-10.476562-6.921876-20.160156-15.820313-24.667969-10.160156-5.148437-20.410156-4.390625-28.859375 2.128907-10.355469 7.984374-15.570312 22.925781-12.683594 36.332031 2.8125 13.054687 14.027344 22.914062 26.089844 22.933593zm-10.941406-56.066406c7.152344-5.515625 15.875-6.128906 24.570312-1.722656 7.65625 3.878906 13 12.253906 13.617188 21.335938.582031 8.605468-2.976563 17.667968-9.519532 24.242187-5.171874 5.195313-11.617187 8.171875-17.695312 8.171875-.007812 0-.019531 0-.027344 0-10.035156-.015625-19.761718-8.6875-22.144531-19.746094-2.53125-11.746094 2.179687-25.324218 11.199219-32.28125zm0 0" data-original="#000000" class="active-path" data-old_color="#000000" fill="#00558C"/><path d="m89.300781 208.539062c2.140625 9.9375 10.695313 17.445313 19.894531 17.457032h.027344c5.445313 0 11.148438-2.589844 15.648438-7.113282 5.570312-5.59375 8.59375-13.347656 8.09375-20.742187-.542969-7.960937-5.269532-15.328125-12.046875-18.761719-7.738281-3.917968-15.554688-3.339844-22 1.632813-7.851563 6.054687-11.804688 17.375-9.617188 27.527343zm12.082031-24.328124c2.875-2.214844 6.101563-3.328126 9.484376-3.328126 2.679687 0 5.453124.695313 8.226562 2.101563 5.53125 2.800781 9.394531 8.859375 9.839844 15.429687.421875 6.253907-2.164063 12.839844-6.925782 17.621094-3.746093 3.765625-8.40625 5.921875-12.785156 5.921875-.007812 0-.011718 0-.019531 0-7.226563-.011719-14.234375-6.277343-15.953125-14.265625-1.84375-8.550781 1.578125-18.421875 8.132812-23.480468zm0 0" data-original="#000000" class="active-path" data-old_color="#000000" fill="#00558C"/><path d="m159.269531 136.398438h.03125c7.144531 0 14.636719-3.410157 20.558594-9.363282 7.351563-7.386718 11.347656-17.613281 10.6875-27.363281-.710937-10.476563-6.921875-20.15625-15.824219-24.664063-10.160156-5.148437-20.410156-4.394531-28.859375 2.125-10.355469 7.988282-15.570312 22.925782-12.679687 36.332032 2.808594 13.058594 14.027344 22.917968 26.085937 22.933594zm-10.941406-56.066407c3.996094-3.082031 8.480469-4.632812 13.179687-4.632812 3.710938 0 7.554688.96875 11.386719 2.910156 7.65625 3.878906 13.003907 12.253906 13.617188 21.335937.585937 8.605469-2.972657 17.667969-9.515625 24.242188-5.171875 5.195312-11.617188 8.171875-17.695313 8.171875-.007812 0-.019531 0-.027343 0-10.035157-.011719-19.761719-8.683594-22.144532-19.746094-2.53125-11.746093 2.179688-25.324219 11.199219-32.28125zm0 0" data-original="#000000" class="active-path" data-old_color="#000000" fill="#00558C"/><path d="m139.632812 111.257812c2.171876 10.082032 10.847657 17.691407 20.183594 17.707032h.023438c5.523437 0 11.308594-2.628906 15.875-7.214844 5.648437-5.679688 8.71875-13.546875 8.210937-21.046875-.546875-8.082031-5.34375-15.550781-12.214843-19.03125-7.855469-3.976563-15.78125-3.390625-22.320313 1.65625-7.964844 6.140625-11.976563 17.625-9.757813 27.929687zm12.226563-24.730468c2.921875-2.257813 6.210937-3.390625 9.652344-3.390625 2.726562 0 5.550781.710937 8.371093 2.136719 5.628907 2.851562 9.558594 9.015624 10.011719 15.703124.433594 6.359376-2.199219 13.058594-7.042969 17.921876-3.8125 3.832031-8.550781 6.027343-13.011718 6.027343-.003906 0-.011719 0-.015625 0-7.355469-.011719-14.488281-6.390625-16.238281-14.519531-1.875-8.695312 1.605468-18.738281 8.273437-23.878906zm0 0" data-original="#000000" class="active-path" data-old_color="#000000" fill="#00558C"/><path d="m178.230469 193.652344c2.8125 13.058594 14.027343 22.917968 26.085937 22.933594h.03125c7.144532 0 14.636719-3.410157 20.5625-9.359376 7.351563-7.386718 11.34375-17.617187 10.683594-27.367187-.710938-10.472656-6.921875-20.15625-15.824219-24.664063-10.160156-5.144531-20.410156-4.390624-28.859375 2.125-10.351562 7.988282-15.566406 22.925782-12.679687 36.332032zm15.148437-33.132813c7.148438-5.515625 15.875-6.125 24.566406-1.722656 7.65625 3.878906 13.003907 12.253906 13.617188 21.335937.585938 8.605469-2.972656 17.667969-9.515625 24.242188-5.171875 5.195312-11.621094 8.171875-17.695313 8.171875-.007812 0-.019531 0-.027343 0-10.035157-.015625-19.761719-8.6875-22.144531-19.746094v.003907c-2.53125-11.75 2.179687-25.328126 11.199218-32.285157zm0 0" data-original="#000000" class="active-path" data-old_color="#000000" fill="#00558C"/><path d="m186.300781 149.226562c-13.480469 10.394532-20.265625 29.851563-16.503906 47.3125 3.589844 16.667969 18.441406 29.742188 33.804687 29.765626h.042969c9.257813 0 18.980469-4.433594 26.679688-12.167969 9.578125-9.621094 14.78125-22.9375 13.917969-35.625-.921876-13.605469-8.980469-26.175781-20.53125-32.027344-13.179688-6.675781-26.464844-5.703125-37.410157 2.742187zm35.582031.859376c10.304688 5.222656 17.5 16.484374 18.328126 28.699218.785156 11.542969-3.980469 23.691406-12.75 32.5-6.945313 6.976563-15.625 10.976563-23.816407 10.976563-.011719 0-.023437 0-.035156 0-13.539063-.019531-26.660156-11.691407-29.863281-26.574219-3.445313-15.992188 2.730468-33.78125 15.023437-43.261719 9.644531-7.441406 21.40625-8.269531 33.113281-2.339843zm0 0" data-original="#000000" class="active-path" data-old_color="#000000" fill="#00558C"/><path d="m150.488281 230.714844c-4.640625-2.351563-9.527343-1.984375-13.410156 1.011718-4.710937 3.632813-7.082031 10.414063-5.777344 16.488282 1.300781 6.03125 6.519531 10.585937 12.140625 10.59375h.015625c3.320313 0 6.78125-1.566406 9.496094-4.292969 3.332031-3.347656 5.144531-8 4.84375-12.441406-.328125-4.816407-3.195313-9.277344-7.308594-11.359375zm-.398437 20.949218c-1.960938 1.972657-4.378906 3.105469-6.632813 3.105469-.003906 0-.007812 0-.011719 0-3.699218-.007812-7.300781-3.257812-8.195312-7.402343-.976562-4.535157.832031-9.769532 4.296875-12.441407 1.863281-1.4375 4.960937-2.710937 9.113281-.609375 2.867188 1.453125 4.871094 4.605469 5.105469 8.035156.222656 3.296876-1.152344 6.777344-3.675781 9.3125zm0 0" data-original="#000000" class="active-path" data-old_color="#000000" fill="#00558C"/><path d="m181.1875 227.8125c-4.636719-2.347656-9.523438-1.980469-13.410156 1.015625-4.707032 3.632813-7.082032 10.410156-5.773438 16.488281 1.296875 6.03125 6.515625 10.582032 12.140625 10.589844h.011719c3.320312 0 6.78125-1.5625 9.496094-4.292969 3.335937-3.347656 5.144531-8 4.84375-12.4375-.324219-4.820312-3.195313-9.28125-7.308594-11.363281zm-.394531 20.953125c-1.964844 1.972656-4.378907 3.101563-6.632813 3.101563-.003906 0-.007812 0-.011718 0-3.703126-.003907-7.300782-3.253907-8.195313-7.402344-.976563-4.535156.828125-9.765625 4.292969-12.441406 1.15625-.890626 2.785156-1.71875 4.847656-1.71875 1.261719 0 2.6875.3125 4.269531 1.109374 2.867188 1.453126 4.871094 4.609376 5.105469 8.035157.222656 3.296875-1.152344 6.78125-3.675781 9.316406zm0 0" data-original="#000000" class="active-path" data-old_color="#000000" fill="#00558C"/><path d="m122.042969 162.511719h.015625c3.320312 0 6.78125-1.566407 9.496094-4.292969 3.332031-3.347656 5.144531-8 4.84375-12.441406-.328126-4.816406-3.199219-9.277344-7.308594-11.363282-4.640625-2.347656-9.527344-1.976562-13.410156 1.015626-4.710938 3.632812-7.085938 10.414062-5.777344 16.488281 1.300781 6.03125 6.519531 10.585937 12.140625 10.59375zm-3.898438-23.882813c1.867188-1.441406 4.964844-2.714844 9.117188-.609375 2.867187 1.453125 4.871093 4.605469 5.105469 8.03125.222656 3.300781-1.152344 6.78125-3.675782 9.316407-1.960937 1.972656-4.378906 3.105468-6.632812 3.105468-.003906 0-.007813 0-.007813 0-3.703125-.007812-7.304687-3.257812-8.199219-7.40625v.003906c-.976562-4.539062.828126-9.769531 4.292969-12.441406zm0 0" data-original="#000000" class="active-path" data-old_color="#000000" fill="#00558C"/><path d="m206.75 131.300781h.011719c3.324219 0 6.785156-1.5625 9.5-4.289062 3.332031-3.351563 5.144531-8 4.839843-12.441407-.324218-4.816406-3.195312-9.277343-7.308593-11.363281-4.636719-2.347656-9.527344-1.980469-13.40625 1.015625-4.710938 3.632813-7.085938 10.414063-5.777344 16.488282 1.296875 6.03125 6.519531 10.582031 12.140625 10.589843zm-3.898438-23.878906c1.867188-1.441406 4.964844-2.714844 9.117188-.609375 2.867188 1.453125 4.871094 4.605469 5.101562 8.03125.226563 3.296875-1.148437 6.78125-3.675781 9.316406-1.960937 1.972656-4.378906 3.101563-6.632812 3.101563 0 0-.003907 0-.007813 0-3.703125-.003907-7.304687-3.253907-8.195312-7.402344-.976563-4.535156.828125-9.765625 4.292968-12.4375zm0 0" data-original="#000000" class="active-path" data-old_color="#000000" fill="#00558C"/><path d="m89.941406 274.855469h.015625c3.320313 0 6.78125-1.5625 9.496094-4.289063 3.335937-3.347656 5.144531-8 4.84375-12.441406-.328125-4.820312-3.195313-9.277344-7.308594-11.363281-4.640625-2.347657-9.527343-1.980469-13.410156 1.015625-4.707031 3.632812-7.082031 10.414062-5.773437 16.488281 1.296874 6.03125 6.515624 10.582031 12.136718 10.589844zm-3.894531-23.878907c1.867187-1.441406 4.960937-2.714843 9.117187-.609374 2.867188 1.453124 4.871094 4.605468 5.101563 8.03125.226563 3.296874-1.148437 6.78125-3.671875 9.316406-1.964844 1.972656-4.382812 3.101562-6.636719 3.101562 0 0-.003906 0-.007812 0-3.703125-.003906-7.304688-3.253906-8.195313-7.402344-.976562-4.535156.828125-9.765624 4.292969-12.4375zm0 0" data-original="#000000" class="active-path" data-old_color="#000000" fill="#00558C"/><path d="m333.90625 362.027344c.398438.035156.78125.050781 1.148438.050781 2.601562 0 4.507812-.855469 5.679687-2.554687 2.785156-4.042969.042969-11.046876-3.332031-18.011719l-.308594-.644531c-4.207031-8.773438-3.367188-19.625 2.140625-27.644532.855469-1.246094 1.8125-2.421875 2.824219-3.667968 1.914062-2.359376 3.890625-4.800782 5.164062-7.753907 2.148438-4.976562 1.335938-11.976562-3.71875-14.605469-2.722656-1.417968-6.222656-1.289062-9.363281.351563-2.742187 1.429687-4.773437 3.6875-6.394531 5.710937-7.539063 9.378907-12.066406 21.160157-12.746094 33.171876-.386719 6.816406.425781 13.707031 2.351562 19.925781 2.195313 7.089843 8.742188 14.988281 16.554688 15.671875zm-14.875-35.367188c.636719-11.179687 4.847656-22.144531 11.863281-30.875 1.359375-1.691406 3.035157-3.570312 5.113281-4.65625 1.941407-1.015625 4.101563-1.148437 5.632813-.351562 2.902344 1.507812 3.3125 6.089844 1.875 9.421875-1.054687 2.441406-2.773437 4.5625-4.59375 6.808593-1.019531 1.253907-2.070313 2.550782-3.015625 3.925782-6.3125 9.191406-7.277344 21.625-2.457031 31.675781l.320312.664063c3.632813 7.492187 4.855469 12.1875 3.636719 13.957031-.558594.816406-2.023438.871093-3.148438.769531-5.835937-.507812-11.214843-6.925781-13.046874-12.839844-1.785157-5.765625-2.539063-12.164062-2.179688-18.5zm0 0" data-original="#000000" class="active-path" data-old_color="#000000" fill="#00558C"/><path d="m446.839844 325.992188c-3.035156-.601563-6.035156-.105469-8.5625.453124-11.75 2.605469-22.648438 8.964844-30.695313 17.910157-4.566406 5.074219-8.238281 10.957031-10.628906 17.015625-2.722656 6.90625-2.558594 17.164062 3.109375 22.582031 1.78125 1.699219 3.558594 2.554687 5.3125 2.554687.527344 0 1.058594-.078124 1.582031-.238281 4.703125-1.410156 6.945313-8.585937 8.671875-16.132812l.160156-.699219c2.207032-9.472656 9.648438-17.414062 18.964844-20.226562 1.445313-.433594 2.925782-.757813 4.496094-1.097657 2.96875-.644531 6.039062-1.308593 8.878906-2.816406 4.789063-2.539063 8.535156-8.507813 6.238282-13.722656-1.242188-2.8125-4.054688-4.898438-7.527344-5.582031zm-.601563 15.734374c-2.351562 1.246094-5.019531 1.824219-7.84375 2.4375-1.578125.34375-3.210937.695313-4.808593 1.179688-10.671876 3.222656-19.203126 12.320312-21.734376 23.175781l-.164062.714844c-1.851562 8.121094-3.835938 12.550781-5.890625 13.167969-.949219.28125-2.125-.589844-2.941406-1.371094-4.234375-4.046875-4.417969-12.417969-2.144531-18.175781 2.214843-5.617188 5.628906-11.078125 9.875-15.796875 7.484374-8.328125 17.632812-14.246094 28.5625-16.667969 1.480468-.328125 3.128906-.632813 4.777343-.632813.714844 0 1.429688.058594 2.128907.195313 2.152343.425781 3.917968 1.667969 4.613281 3.25 1.320312 2.992187-1.226563 6.824219-4.429688 8.523437zm0 0" data-original="#000000" class="active-path" data-old_color="#000000" fill="#00558C"/><path d="m388.402344 323.132812c3.8125 5.007813 10.765625 9.488282 17.410156 9.488282 1.1875 0 2.367188-.140625 3.515625-.453125 3.097656-.832031 4.964844-2.414063 5.554687-4.695313 1.230469-4.753906-3.746093-10.390625-9.308593-15.773437l-.515625-.5c-6.960938-6.796875-9.894532-17.277344-7.472656-26.699219.378906-1.464844.871093-2.898438 1.390624-4.417969.988282-2.871093 2.007813-5.84375 2.195313-9.054687.308594-5.410156-2.859375-11.707032-8.507813-12.441406-3.046874-.398438-6.289062.929687-8.675781 3.542968-2.085937 2.285156-3.214843 5.105469-4.046875 7.558594-3.863281 11.398438-4.070312 24.015625-.585937 35.535156 1.976562 6.535156 5.105469 12.726563 9.046875 17.910156zm-4.636719-52.144531c.699219-2.0625 1.625-4.398437 3.207031-6.132812 1.476563-1.621094 3.460938-2.488281 5.167969-2.261719 3.246094.421875 5.203125 4.582031 4.996094 8.207031-.152344 2.652344-1.039063 5.234375-1.976563 7.96875-.527344 1.527344-1.066406 3.105469-1.484375 4.722657-2.773437 10.800781.585938 22.808593 8.5625 30.597656l.527344.511718c5.984375 5.792969 8.746094 9.78125 8.207031 11.859376-.246094.960937-1.601562 1.511718-2.695312 1.804687-5.648438 1.527344-12.910156-2.65625-16.660156-7.582031-3.652344-4.800782-6.554688-10.550782-8.394532-16.628906-3.242187-10.71875-3.046875-22.460938.542969-33.066407zm0 0" data-original="#000000" class="active-path" data-old_color="#000000" fill="#00558C"/><path d="m348.945312 378.886719c1.984376 7.148437 8.292969 15.242187 16.082032 16.152343.519531.0625 1.015625.09375 1.488281.09375 2.429687 0 4.246094-.800781 5.410156-2.390624 2.90625-3.960938.375-11.039063-2.792969-18.101563l-.292968-.65625c-3.941406-8.894531-2.777344-19.714844 2.964844-27.566406.890624-1.21875 1.882812-2.367188 2.929687-3.582031 1.984375-2.304688 4.03125-4.683594 5.394531-7.597657 2.292969-4.910156 1.691406-11.933593-3.285156-14.710937-2.679688-1.5-6.183594-1.472656-9.371094.074218-2.78125 1.347657-4.878906 3.542969-6.5625 5.515626-7.8125 9.152343-12.6875 20.792968-13.722656 32.78125-.589844 6.800781.019531 13.710937 1.757812 19.988281zm2.265626-19.636719c.964843-11.15625 5.5-21.992188 12.769531-30.507812 1.414062-1.652344 3.140625-3.480469 5.253906-4.507813 1.972656-.953125 4.132813-1.023437 5.640625-.179687 2.855469 1.59375 3.128906 6.1875 1.59375 9.472656-1.125 2.410156-2.910156 4.480468-4.796875 6.671875-1.050781 1.222656-2.140625 2.484375-3.128906 3.832031-6.582031 9-7.914063 21.398438-3.394531 31.589844l.296874.671875c3.410157 7.597656 4.492188 12.328125 3.222657 14.058593-.582031.796876-2.046875.808594-3.171875.675782-5.816406-.679688-11.003906-7.257813-12.65625-13.222656-1.613282-5.8125-2.175782-12.230469-1.628906-18.554688zm0 0" data-original="#000000" class="active-path" data-old_color="#000000" fill="#00558C"/><path d="m454.972656 383.722656c-4.507812-2.660156-10.007812-1.4375-13.648437.59375-3.3125 1.847656-5.941407 4.503906-8.484375 7.078125-.390625.394531-.785156.789063-1.175782 1.183594-10.871093 10.835937-22.546874 17.917969-34.703124 21.042969-13.855469 3.5625-28.363282 1.441406-38.808594-5.675782-6.953125-4.738281-12.105469-11.371093-17.554688-18.394531-5.117187-6.589843-10.40625-13.402343-17.308594-18.449219-6.351562-4.644531-12.804687-5.878906-17.707031-3.382812-3.378906 1.722656-5.871093 5.167969-6.835937 9.453125-.890625 3.960937-.378906 7.964844.167968 11.007813 1.546876 8.621093 5.003907 17.167968 9.992188 24.714843 4.359375 6.589844 9.808594 12.351563 16.199219 17.132813 1.613281 1.207031 3.164062 2.519531 4.8125 3.910156 2.949219 2.492188 6 5.066406 9.410156 6.976562 11.003906 6.164063 25.675781 9.523438 40.773437 9.523438 3.769532 0 7.5625-.210938 11.328126-.636719 19.070312-2.160156 37.554687-10.277343 52.046874-22.855469 9.773438-8.484374 15.550782-17.472656 17.179688-26.714843.972656-5.496094.0625-13.117188-5.683594-16.507813zm1.707032 15.804688c-1.460938 8.308594-6.796876 16.507812-15.851563 24.367187-13.882813 12.050781-31.585937 19.824219-49.851563 21.894531-18.066406 2.046876-36.636718-1.09375-49.675781-8.398437-3.074219-1.71875-5.972656-4.167969-8.777343-6.539063-1.617188-1.367187-3.289063-2.78125-5-4.054687-6.015626-4.503906-11.144532-9.929687-15.246094-16.128906-4.6875-7.09375-7.933594-15.117188-9.386719-23.199219-.480469-2.671875-.933594-6.152344-.203125-9.410156.691406-3.0625 2.457031-5.582032 4.730469-6.738282 1.171875-.597656 2.40625-.839843 3.644531-.839843 4 0 8.007812 2.539062 9.84375 3.882812 6.441406 4.710938 11.554688 11.296875 16.5 17.664063 5.402344 6.960937 10.992188 14.160156 18.46875 19.253906 11.394531 7.761719 27.128906 10.101562 42.089844 6.25 12.863281-3.308594 25.160156-10.742188 36.550781-22.09375.398437-.398438.796875-.800781 1.195313-1.207031 2.453124-2.476563 4.769531-4.820313 7.582031-6.386719 2.660156-1.484375 6.589843-2.433594 9.628906-.644531 3.964844 2.339843 4.503906 8.105469 3.757813 12.328125zm0 0" data-original="#000000" class="active-path" data-old_color="#000000" fill="#00558C"/><path d="m416.429688 299.539062c.121093 0 .242187 0 .359374-.007812 4.535157-.214844 8.890626-4.105469 9.507813-8.488281.484375-3.429688-1.402344-6.21875-5.050781-7.457031-3.085938-1.050782-8.273438-.980469-11.613282.957031-1.882812 1.09375-3.074218 2.6875-3.445312 4.609375-.429688 2.203125.257812 4.480468 1.933594 6.414062 2.054687 2.375 5.421875 3.972656 8.308594 3.972656zm-6.277344-9.617187c.148437-.765625.640625-1.382813 1.503906-1.882813 1.304688-.757812 3.207031-1.09375 4.988281-1.09375 1.238281 0 2.417969.164063 3.296875.460938 2.664063.90625 2.433594 2.535156 2.355469 3.070312-.316406 2.257813-2.824219 4.882813-5.699219 5.019532-1.742187.089844-4.082031-1.023438-5.425781-2.574219-.597656-.691406-1.257813-1.769531-1.019531-3zm0 0" data-original="#000000" class="active-path" data-old_color="#000000" fill="#00558C"/><path d="m441.730469 357.363281c-1.882813 1.089844-3.074219 2.683594-3.445313 4.605469-.425781 2.207031.257813 4.480469 1.933594 6.414062 2.054688 2.375 5.421875 3.972657 8.304688 3.972657.121093 0 .242187 0 .363281-.007813 4.535156-.214844 8.890625-4.105468 9.507812-8.488281.484375-3.429687-1.40625-6.21875-5.050781-7.460937-3.082031-1.046876-8.273438-.976563-11.613281.964843zm12.667969 5.933594c-.320313 2.253906-2.824219 4.878906-5.703126 5.019531-1.746093.085938-4.082031-1.023437-5.421874-2.578125-.597657-.6875-1.261719-1.769531-1.023438-3 .148438-.761719.640625-1.378906 1.507812-1.882812 1.304688-.753907 3.207032-1.09375 4.988282-1.09375 1.238281 0 2.417968.164062 3.296875.464843 2.660156.90625 2.429687 2.535157 2.355469 3.070313zm0 0" data-original="#000000" class="active-path" data-old_color="#000000" fill="#00558C"/><path d="m379.960938 392.664062c-1.882813 1.09375-3.074219 2.6875-3.445313 4.609376-.425781 2.207031.257813 4.484374 1.933594 6.414062 2.058593 2.378906 5.421875 3.972656 8.308593 3.972656.121094 0 .242188 0 .359376-.007812 4.535156-.214844 8.890624-4.105469 9.507812-8.488282.484375-3.429687-1.402344-6.214843-5.050781-7.457031-3.085938-1.050781-8.269531-.980469-11.613281.957031zm12.667968 5.933594c-.320312 2.257813-2.824218 4.882813-5.703125 5.019532-1.742187.09375-4.078125-1.019532-5.425781-2.574219-.597656-.6875-1.257812-1.769531-1.019531-3 .148437-.765625.640625-1.378907 1.503906-1.882813 1.304687-.753906 3.207031-1.09375 4.988281-1.09375 1.238282 0 2.417969.164063 3.296875.464844 2.664063.902344 2.433594 2.53125 2.359375 3.066406zm0 0" data-original="#000000" class="active-path" data-old_color="#000000" fill="#00558C"/><path d="m378.117188 102.871094.570312-.230469c2.890625-1.171875 5.878906-2.378906 7.882812-1.128906 2.109376 1.3125 1.964844 5.058593.515626 7.597656-.875 1.53125-2.070313 2.898437-3.335938 4.347656-1.269531 1.457031-2.582031 2.960938-3.632812 4.71875-2.5 4.183594-2.671876 10.226563 1.367187 13.089844 4.28125 3.035156 9.871094.34375 12.871094-1.097656 1.4375-.691407 6.273437-2.765625 8.253906-.503907 1.09375 1.246094.921875 3.257813.726563 5.585938-.125 1.457031-.253907 2.964844-.078126 4.480469.339844 2.941406 2.035157 5.722656 4.644532 7.632812 2.164062 1.585938 4.710937 2.425781 7.222656 2.425781.699219 0 1.398438-.0625 2.085938-.195312 6.015624-1.171875 10.695312-7.300781 10.433593-13.664062-.242187-5.960938-4.542969-11.578126-10.457031-13.660157-1.152344-.40625-2.304688-.667969-3.421875-.925781-1.242187-.285156-2.417969-.554688-3.488281-.992188-1.554688-.632812-3.160156-1.945312-3.242188-3.453124-.046875-.851563.351563-1.792969.8125-2.882813.304688-.726563.625-1.476563.847656-2.300781.527344-1.90625.128907-4.160156-.984374-5.601563-.84375-1.089843-2.050782-1.65625-3.355469-1.664062-2.277344.03125-3.554688 1.734375-4.484375 2.976562-.5.667969-1.019532 1.355469-1.457032 1.511719-.195312.070312-.425781-.027344-.585937-.121094-.453125-.265625-.832031-.800781-.917969-1.300781-.238281-1.386719.609375-3.027344 1.269532-4.136719.171874-.289062.347656-.574218.523437-.863281.882813-1.433594 1.882813-3.0625 2.277344-4.976563 1.679687-8.117187-8.640625-15.726562-14.277344-17.816406-8.777344-3.257812-16.210937 7.285156-19.007813 11.253906-3.21875 4.566407-2.765624 7.703126-1.816406 9.527344 2.167969 4.164063 7.707032 4.1875 12.238282 2.367188zm-7.121094-9.566406c3.625-5.136719 9.050781-11.742188 14.304687-9.792969 5.34375 1.980469 12.75 8.261719 11.726563 13.210937-.253906 1.222656-.988282 2.417969-1.765625 3.679688-.1875.304687-.375.609375-.554688.917968-.984375 1.660157-2.238281 4.179688-1.777343 6.882813.285156 1.664063 1.382812 3.238281 2.859374 4.101563 1.273438.746093 2.683594.898437 3.980469.441406 1.585938-.566406 2.554688-1.855469 3.332031-2.898438.429688-.570312 1.019532-1.355468 1.316407-1.363281.25.128906.652343 1.1875.386719 2.160156-.15625.570313-.410157 1.167969-.675782 1.800781-.574218 1.355469-1.222656 2.890626-1.125 4.671876.1875 3.496093 3.097656 5.898437 5.753906 6.976562 1.371094.558594 2.761719.878906 4.101563 1.1875 1.054687.242188 2.050781.46875 2.988281.800781 4.324219 1.519531 7.589844 5.730469 7.765625 10.011719.179688 4.378906-3.105469 8.742188-7.171875 9.535156-2.015625.390625-4.316406-.179687-6.152344-1.523437-1.707031-1.25-2.804687-3.011719-3.015624-4.839844-.128907-1.113281-.023438-2.355469.085937-3.675781.242187-2.835938.515625-6.050782-1.710937-8.589844-1.414063-1.613281-3.371094-2.421875-5.75-2.421875-2.125 0-4.585938.648437-7.292969 1.949219-3.117188 1.5-6.625 2.972656-8.785157 1.441406-2.035156-1.445312-1.765624-5.160156-.234374-7.722656.863281-1.445313 2.003906-2.75 3.210937-4.132813 1.335937-1.535156 2.722656-3.121093 3.796875-5 2.402344-4.203125 2.363281-10.382812-1.882812-13.03125-3.75-2.339843-8.070313-.589843-11.539063.816407l-.5625.226562c-2.289063.921875-6.085937 1.554688-7.140625-.480469-.828125-1.585937.601562-4.027343 1.527344-5.339843zm0 0" data-original="#000000" class="active-path" data-old_color="#000000" fill="#00558C"/><path d="m413.058594 100.179688c1.453125.292968 2.828125.574218 3.863281 1.246093 1.515625.984375 1.851563 3.265625 1.925781 4.199219.078125 1.007812.039063 2.042969-.003906 3.144531-.042969 1.121094-.089844 2.277344-.003906 3.464844.425781 6.160156 4.546875 11.683594 10.023437 13.421875 1.222657.390625 2.476563.574219 3.71875.574219 4.988281 0 9.789063-2.964844 11.480469-7.554688 1.566406-4.242187.550781-9.332031-3.011719-15.136719-3.191406-5.195312-14.402343-22.128906-25.253906-21.804687-5.359375.15625-10.359375 5.421875-10.28125 10.835937.085937 6.101563 4.574219 7.007813 7.542969 7.609376zm2.855468-14.410157h.179688c6.421875 0 15.410156 9.945313 21.515625 19.882813 2.878906 4.695312 3.777344 8.605468 2.664063 11.625-1.34375 3.636718-6.195313 5.796875-10.183594 4.53125-3.875-1.234375-6.910156-5.378906-7.222656-9.855469-.066407-.96875-.027344-1.96875.015624-3.027344.042969-1.167969.089844-2.375-.007812-3.621093-.257812-3.28125-1.589844-5.863282-3.75-7.269532-1.683594-1.089844-3.585938-1.476562-5.265625-1.816406-3.238281-.65625-4.265625-.992188-4.304687-3.707031-.042969-3.183594 3.222656-6.648438 6.359374-6.742188zm0 0" data-original="#000000" class="active-path" data-old_color="#000000" fill="#00558C"/><path d="m160.007812 199.496094c-.761718-2.027344-1.707031-4.554688-1.671874-5.492188.070312-1.730468.855468-3.46875 1.691406-5.304687.941406-2.074219 1.914062-4.21875 2.042968-6.691407.207032-3.917968-1.722656-7.207031-3.585937-10.390624-1.6875-2.882813-3.285156-5.601563-2.972656-8.375.289062-2.578126 2.21875-4.882813 4.339843-7.207032 2.203126-2.417968 4.945313-5.425781 5.566407-9.289062.398437-2.488282-.410157-5.199219-2.105469-7.082032-1.371094-1.515624-3.15625-2.285156-5.039062-2.179687-3.109376.179687-5.199219 2.496094-6.910157 4.65625l-4.535156 5.707031c-2.269531 2.855469-5.371094 6.761719-5.621094 11.464844-.21875 4.140625 1.722657 7.621094 3.601563 10.984375 1.300781 2.332031 2.53125 4.539063 3.007812 6.855469.742188 3.601562-.335937 7.421875-1.601562 11.351562-1.546875 4.789063-6.257813 19.363282 7.609375 24.035156.722656.242188 2.285156.769532 3.902343.769532 1.238282 0 2.511719-.3125 3.464844-1.292969 2.53125-2.625.644532-7.652344-1.183594-12.519531zm-1.703124 9.695312c-.007813.003906-.6875.359375-3.191407-.480468-7.070312-2.382813-8.582031-8.054688-5.054687-18.96875 1.382812-4.28125 2.65625-8.847657 1.714844-13.40625-.605469-2.929688-2.046876-5.511719-3.4375-8.007813-1.671876-2.996094-3.25-5.824219-3.09375-8.804687.164062-3.152344 2.246093-6.015626 4.746093-9.160157l4.535157-5.710937c1.171874-1.472656 2.539062-3.050782 3.984374-3.132813.039063-.003906.074219-.003906.109376-.003906.757812 0 1.335937.460937 1.695312.859375.871094.964844 1.320312 2.464844 1.117188 3.730469-.429688 2.675781-2.53125 4.980469-4.5625 7.207031-2.484376 2.726562-4.945313 5.703125-5.371094 9.484375-.457032 4.105469 1.554687 7.539063 3.503906 10.863281 1.632812 2.789063 3.179688 5.425782 3.035156 8.136719-.089844 1.710937-.867187 3.421875-1.6875 5.234375-.957031 2.109375-1.949218 4.292969-2.046875 6.8125-.070312 1.753906.851563 4.21875 1.925781 7.074219.820313 2.183593 2.738282 7.292969 2.078126 8.273437zm0 0" data-original="#000000" class="active-path" data-old_color="#000000" fill="#00558C"/><path d="m70.675781 246c1.578125-.421875 4.367188-1.828125 5.320313-6.515625.863281-4.265625-1.035156-8.433594-2.535156-11.195313-.332032-.613281-.679688-1.21875-1.023438-1.824218-1.332031-2.34375-2.589844-4.554688-3.074219-6.9375-.839843-4.160156.753907-8.628906 2.15625-12.574219.277344-.765625.0625-1.625-.542969-2.171875-.601562-.550781-1.476562-.683594-2.214843-.335938-7.835938 3.667969-13.265625 11.617188-13.828125 20.25-.410156 6.300782 1.8125 12.710938 6.097656 17.582032 2.214844 2.519531 5.132812 3.953125 7.828125 3.953125.621094 0 1.230469-.074219 1.816406-.230469zm-6.613281-6.390625c-3.527344-4.011719-5.433594-9.488281-5.097656-14.648437.34375-5.269532 2.996094-10.371094 6.984375-13.875-.765625 2.929687-1.183594 6.085937-.546875 9.242187.613281 3.019531 2.09375 5.621094 3.523437 8.132813.332031.585937.664063 1.171874.984375 1.757812 1.199219 2.210938 2.726563 5.488281 2.125 8.460938-.273437 1.339843-.910156 3.019531-2.402344 3.417968-1.609374.429688-3.902343-.59375-5.570312-2.488281zm0 0" data-original="#000000" class="active-path" data-old_color="#000000" fill="#00558C"/><path d="m169.890625 386.242188c.410156-1.535157.679687-3.082032.773437-4.617188.335938-5.574219-1.652343-11.039062-5.199218-14.734375 1.484375-2.546875 2.695312-5.722656 2.164062-9.230469-.453125-3.007812-2.292968-5.730468-5.042968-7.472656-.207032-.128906-.417969-.238281-.625-.355469 5.460937-5.914062 5.394531-10.78125 4.222656-13.96875-1.402344-3.800781-5.121094-6.625-9.710938-7.371093-3.621094-.582032-7.082031.101562-10.316406.851562-39.390625 9.144531-73.167969 31.796875-101.011719 52.75-5.355469 4.03125-10.398437 8.136719-13.210937 14.027344-3.050782 6.382812-2.710938 15.742187 3.929687 20.511718 2.417969 1.738282 5.265625 2.605469 8.523438 2.605469.769531 0 1.570312-.0625 2.386719-.160156.085937 2.851563 1.308593 5.742187 3.582031 7.84375 2.46875 2.277344 5.957031 3.511719 9.71875 3.511719.539062 0 1.085937-.03125 1.636719-.082032-.101563 4.039063 1.8125 8.136719 5.277343 10.386719 2.132813 1.390625 4.503907 1.953125 6.785157 2.097657-.386719 4.992187 2.378906 10.171874 6.421874 13.003906 4.917969 3.445312 11.042969 3.996094 16.039063 3.996094.3125 0 .617187 0 .917969-.003907 21.378906-.261719 42.527344-7.527343 59.558594-20.449219 9.761718-7.410156 15.941406-15.164062 18.882812-23.703124 3.710938-10.78125 1.402344-22.429688-5.703125-29.4375zm-.984375 27.132812c-2.472656 7.175781-7.859375 13.839844-16.472656 20.378906-15.832032 12.015625-35.496094 18.765625-55.371094 19.011719-4.347656.046875-9.261719-.230469-12.8125-2.71875-2.425781-1.695313-4.113281-5.257813-3.171875-7.832031 9.511719-1.792969 18.53125-5.875 26.148437-11.863282 1.535157-1.203124 1.800782-3.425781.59375-4.960937-1.203124-1.535156-3.425781-1.800781-4.960937-.59375-7 5.5-15.339844 9.1875-24.117187 10.664063-3.746094.628906-6.257813.421874-7.902344-.648438-1.921875-1.246094-2.667969-4.3125-1.539063-6.304688.082031-.144531.136719-.292968.195313-.441406 1.527344-.707031 2.992187-1.5 4.410156-2.296875 11.140625-6.273437 21.84375-13.511719 31.820312-21.507812 1.523438-1.222657 1.765626-3.449219.542969-4.972657-1.21875-1.519531-3.445312-1.765624-4.964843-.542968-9.675782 7.757812-20.0625 14.777344-30.867188 20.863281-2.839844 1.601563-5.625 3.078125-8.492188 3.585937-2.695312.480469-5.296874-.085937-6.792968-1.46875-1.3125-1.210937-1.71875-3.488281-.820313-4.601562.023438-.027344.039063-.0625.0625-.089844 1.1875-.476562 2.410157-1.027344 3.671875-1.65625 16.054688-8.03125 30.457032-18.714844 42.800782-31.746094 1.339843-1.417968 1.28125-3.65625-.136719-5-1.417969-1.339843-3.65625-1.28125-4.996094.136719-11.777344 12.433594-25.515625 22.625-40.832031 30.289063-6.832032 3.417968-11.847656 4.035156-14.914063 1.832031-3.347656-2.402344-3.476562-7.957031-1.675781-11.722656 2.128906-4.453125 6.277344-7.808594 11.082031-11.425781 27.253907-20.507813 60.253907-42.667969 98.363281-51.515626 2.65625-.613281 5.234376-1.132812 7.585938-.753906 2.011719.324219 3.703125 1.464844 4.207031 2.832032 1.132813 3.074218-3.035156 7.148437-4.878906 8.757812-9.433594 8.226562-20.085937 14.808594-31.664063 19.558594-1.808593.742187-2.667968 2.808594-1.929687 4.613281.742187 1.804687 2.808594 2.671875 4.613281 1.925781 10.730469-4.402344 20.714844-10.289062 29.742188-17.523437.089844-.019531.179687-.023438.269531-.050781.933594-.28125 2.09375-.070313 3.097656.570312 1.007813.636719 1.695313 1.59375 1.839844 2.558594.265625 1.75-.578125 3.871094-2.65625 6.675781-4.769531 6.441406-11.160156 11.558594-18.488281 14.800781-1.785156.792969-2.59375 2.878906-1.800782 4.664063.582032 1.320312 1.875 2.105469 3.234376 2.105469.476562 0 .960937-.097657 1.425781-.304688 7.226562-3.195312 13.652343-7.988281 18.804687-13.953125 1.710938 2.246094 2.636719 5.316406 2.445313 8.496094-.304688 5.078125-3.09375 9.429687-5.378907 12.183593-3.0625 3.695313-7.015624 6.8125-11.136718 9.945313-1.554688 1.183594-1.859375 3.398437-.675782 4.953125.695313.917969 1.75 1.398438 2.816407 1.398438.746093 0 1.496093-.234376 2.132812-.71875 4.464844-3.394532 8.765625-6.792969 12.308594-11.066407 1.1875-1.433593 2.214844-2.910156 3.109375-4.410156 3.625 5.210937 4.546875 12.867187 2.125 19.890625zm0 0" data-original="#000000" class="active-path" data-old_color="#000000" fill="#00558C"/><path d="m226.273438 423.160156c-16.894532-5.597656-33.539063 1.582032-40.625 11.179688-2.023438 2.746094-3.835938 5.761718-5.589844 8.675781-1.121094 1.863281-2.175782 3.625-3.285156 5.3125-4.589844 7.011719-7.003907 15.339844-6.804688 23.449219.335938 13.507812 7.652344 26.359375 19.09375 33.542968 6.964844 4.371094 15.445312 6.679688 24.300781 6.679688 1.699219 0 3.414063-.085938 5.132813-.257812 13.773437-1.375 26.054687-8.332032 32.851562-18.601563 6.34375-9.585937 8.25-22.371094 5.238282-35.085937-3.882813-16.386719-15.78125-30.082032-30.3125-34.894532zm19.179687 66.078125c-5.640625 8.519531-15.980469 14.300781-27.660156 15.472657-9.125.910156-17.992188-1-24.96875-5.378907-9.316407-5.851562-15.511719-16.734375-15.785157-27.730469-.167968-6.6875 1.839844-13.578124 5.652344-19.402343 1.179688-1.800781 2.320313-3.703125 3.425782-5.542969 1.667968-2.773438 3.394531-5.644531 5.21875-8.117188 5.6875-7.703124 19.484374-13.050781 32.714843-8.671874 12.257813 4.0625 22.328125 15.765624 25.65625 29.816406 2.566407 10.820312 1.015625 21.59375-4.253906 29.554687zm0 0" data-original="#000000" class="active-path" data-old_color="#000000" fill="#00558C"/><path d="m127.535156 413.871094-.863281-1.40625c-1.816406-2.992188-3.796875-6.5-4.296875-10.25l-.039062-.300782c-.117188-.949218-.265626-2.132812-1.023438-3.199218-.902344-1.28125-2.382812-1.9375-4.070312-1.796875-2.003907.167969-3.84375 1.394531-4.683594 3.128906-1.347656 2.78125-.457032 5.84375.328125 7.902344.921875 2.429687 2.097656 4.734375 3.234375 6.964843.703125 1.386719 1.4375 2.824219 2.082031 4.246094 1.820313 4.007813 2.613281 7.222656 2.496094 10.121094-.023438.550781-.132813 1.203125-.246094 1.894531-.414063 2.507813-1.042969 6.300781 2.777344 8.378907 1.238281.675781 2.324219.921874 3.253906.921874 1.5 0 2.582031-.648437 3.21875-1.171874 3.855469-3.203126 3.796875-12.542969 2.742187-15.792969-1.140624-3.519531-3.058593-6.632813-4.910156-9.640625zm-.414062 22.324218c-.191406.15625-.640625.527344-1.960938-.191406-1.125-.609375-1.164062-1.484375-.722656-4.171875.128906-.78125.265625-1.585937.296875-2.386719.191406-4.667968-1.535156-9.0625-2.851563-11.960937-.683593-1.5-1.4375-2.976563-2.164062-4.40625-1.136719-2.234375-2.210938-4.34375-3.058594-6.566406-.824218-2.164063-.972656-3.65625-.464844-4.703125.210938-.4375.816407-.820313 1.378907-.863282.105469-.011718.359375-.015624.441406.101563.171875.242187.246094.839844.3125 1.367187l.042969.335938c.601562 4.523438 2.816406 8.46875 4.847656 11.808594.289062.476562.582031.953125.875 1.429687 1.808594 2.9375 3.515625 5.710938 4.507812 8.769531.820313 2.527344.558594 9.746094-1.480468 11.4375zm0 0" data-original="#000000" class="active-path" data-old_color="#000000" fill="#00558C"/><path d="m117.984375 386.664062c.894531-.554687 3.609375-2.816406.933594-8.496093l-7.144531-15.164063c-.621094-1.316406-1.390626-2.949218-2.734376-4.199218-1.757812-1.632813-4.144531-2.160157-6.082031-1.34375-1.777343.746093-3.03125 2.550781-3.273437 4.714843-.195313 1.703125.222656 3.28125.628906 4.625v-.003906c1.875 6.226563 4.890625 12.054687 8.714844 16.851563 1.886718 2.367187 4.332031 3.691406 6.503906 3.691406.882812 0 1.71875-.21875 2.453125-.675782zm-5.796875-5.53125c-3.507812-4.402343-6.277344-9.761718-8.007812-15.5-.289063-.960937-.589844-2.0625-.484376-3 .074219-.671874.425782-1.277343.824219-1.449218.101563-.039063.21875-.0625.34375-.0625.4375 0 .992188.242187 1.425781.644531.773438.714844 1.308594 1.855469 1.828126 2.960937l7.148437 15.164063c1.019531 2.164063.78125 3.222656.585937 3.347656-.378906.234375-2.023437-.046875-3.664062-2.105469zm0 0" data-original="#000000" class="active-path" data-old_color="#000000" fill="#00558C"/><path d="m222.835938 450.375c.960937-4.640625-.761719-9.527344-4.289063-12.160156-4.359375-3.25-10.3125-3.105469-15.175781.375-4.753906 3.402344-6.761719 8.875-5.121094 13.941406 1.59375 4.921875 6.675781 8.445312 11.914062 8.445312.402344 0 .8125-.019531 1.214844-.0625 5.496094-.585937 10.3125-5.019531 11.457032-10.539062zm-3.957032-.820312c-.785156 3.789062-4.191406 6.945312-7.925781 7.34375-3.761719.398437-7.730469-2.117188-8.859375-5.613282-1.324219-4.074218 1.007812-7.53125 3.628906-9.410156 1.515625-1.085938 3.609375-1.953125 5.800782-1.953125 1.542968 0 3.136718.433594 4.605468 1.527344 2.257813 1.691406 3.390625 5.023437 2.75 8.105469zm0 0" data-original="#000000" class="active-path" data-old_color="#000000" fill="#00558C"/><path d="m206.464844 465.394531c-4.355469-3.25-10.3125-3.105469-15.171875.378907-4.753907 3.402343-6.765625 8.871093-5.125 13.9375 1.59375 4.921874 6.675781 8.449218 11.914062 8.449218.402344 0 .8125-.019531 1.21875-.066406 5.492188-.585938 10.308594-5.015625 11.453125-10.539062.964844-4.636719-.761718-9.523438-4.289062-12.160157zm.335937 11.339844c-.785156 3.789063-4.195312 6.945313-7.929687 7.34375-3.753906.398437-7.726563-2.117187-8.859375-5.609375-1.320313-4.078125 1.011719-7.535156 3.632812-9.414062 1.511719-1.082032 3.609375-1.953126 5.796875-1.953126 1.546875 0 3.140625.433594 4.605469 1.53125 2.261719 1.6875 3.390625 5.019532 2.753906 8.101563zm0 0" data-original="#000000" class="active-path" data-old_color="#000000" fill="#00558C"/><path d="m241.851562 457.804688c-5.488281-4.097657-13.007812-3.902344-19.160156.5-6.007812 4.300781-8.554687 11.203124-6.492187 17.582031 2.011719 6.207031 8.421875 10.648437 15.027343 10.648437.511719 0 1.023438-.027344 1.535157-.082031 6.941406-.738281 13.03125-6.34375 14.480469-13.328125 1.214843-5.851562-.953126-12.007812-5.390626-15.320312zm1.433594 14.5c-1.082031 5.226562-5.789062 9.582031-10.949218 10.132812-5.292969.566406-10.691407-2.859375-12.289063-7.792969-1.839844-5.675781 1.539063-10.582031 4.996094-13.054687 3.5625-2.550782 9.46875-4.222656 14.390625-.546875 3.15625 2.355469 4.738281 6.984375 3.851562 11.261719zm0 0" data-original="#000000" class="active-path" data-old_color="#000000" fill="#00558C"/><path d="m193.535156 376.390625c-2.335937 8.742187-.539062 18.320313 4.800782 25.625 6.066406 8.289063 16.601562 12.3125 22.34375 13.96875 1.652343.480469 3.542968.738281 5.480468.738281 4.261719 0 8.746094-1.257812 11.421875-4.226562 1.472657-1.632813 3.601563-5.203125 1.332031-10.796875-2.554687-6.304688-8.957031-7.675781-14.605468-8.890625-4.128906-.882813-8.03125-1.71875-9.867188-4.183594-2.789062-3.738281.417969-10.183594 4.847656-14.351562.925782-.871094 1.898438-1.734376 2.878907-2.597657 4.757812-4.210937 10.148437-8.980469 11.355469-16.039062 1.203124-7.027344-2.144532-12.941407-5.378907-18.65625-2.460937-4.351563-4.785156-8.460938-4.867187-12.664063-.023438-1.433594.179687-3.039062.394531-4.742187.5625-4.4375 1.261719-9.964844-2.734375-13.996094-2.28125-2.300781-5.582031-3.265625-9.054688-2.644531-4.171874.738281-7.964843 3.621094-9.667968 7.339844-2.25 4.910156-1.917969 10.859374 1.015625 18.175781.449219 1.121093.929687 2.234375 1.414062 3.351562 1.574219 3.636719 3.058594 7.070313 3.3125 10.578125.464844 6.429688-3.152343 12.371094-6.984375 18.664063-2.921875 4.792969-5.945312 9.753906-7.4375 15.347656zm21.472656-34.523437c-.339843-4.703126-2.136718-8.855469-3.875-12.875-.460937-1.058594-.917968-2.113282-1.34375-3.175782-2.171874-5.421875-2.550781-9.546875-1.148437-12.601562.742187-1.621094 2.582031-2.988282 4.480469-3.324219.824218-.148437 1.984375-.152344 2.792968.664063 1.464844 1.476562 1.257813 4.058593.742188 8.132812-.238281 1.875-.484375 3.8125-.445312 5.761719.109374 5.988281 2.992187 11.085937 5.78125 16.011719 2.746093 4.851562 5.339843 9.4375 4.5625 13.984374-.789063 4.605469-4.8125 8.164063-9.074219 11.933594-1.03125.914063-2.058594 1.824219-3.039063 2.746094-6.609375 6.21875-11.207031 16.300781-5.667968 23.726562 3.425781 4.59375 9.070312 5.804688 14.050781 6.871094 5.21875 1.121094 8.46875 1.988282 9.539062 4.632813.941407 2.328125.234375 3.113281-.03125 3.410156-1.554687 1.722656-6.265625 2.417969-9.691406 1.429687-8.292969-2.398437-15.074219-6.535156-18.597656-11.351562-4.03125-5.511719-5.441407-13.03125-3.679688-19.628906 1.230469-4.613282 3.859375-8.929688 6.644531-13.496094 4.242188-6.964844 8.625-14.164062 8-22.851562zm0 0" data-original="#000000" class="active-path" data-old_color="#000000" fill="#00558C"/><path d="m316.832031 116.34375 6.503907.472656c.007812.722656.015624 1.449219.046874 2.179688.074219 1.773437.226563 3.542968.441407 5.300781l-7.136719.835937c-1.9375.226563-3.324219 1.980469-3.097656 3.921876.210937 1.796874 1.738281 3.125 3.503906 3.125.136719 0 .277344-.007813.417969-.027344l7.53125-.882813c.445312 1.941407.980469 3.859375 1.585937 5.757813l-5.058594 2.398437c-1.761718.835938-2.515624 2.941407-1.679687 4.707031.605469 1.273438 1.875 2.019532 3.199219 2.019532.503906 0 1.019531-.109375 1.507812-.339844l4.523438-2.140625c1 2.3125 2.117187 4.578125 3.351562 6.78125l-5.800781 3.367187c-1.6875.980469-2.261719 3.144532-1.28125 4.832032.65625 1.128906 1.839844 1.761718 3.058594 1.761718.605469 0 1.214843-.15625 1.773437-.480468l5.992188-3.472656c1.347656 1.953124 2.789062 3.84375 4.320312 5.660156l-4.089844 4.242187c-1.355468 1.402344-1.316406 3.640625.089844 4.996094.683594.664063 1.570313.992187 2.453125.992187.925781 0 1.851563-.363281 2.542969-1.082031l3.816406-3.953125c1.785156 1.753906 3.660156 3.410156 5.617188 4.960938l-3.402344 6.667968c-.886719 1.738282-.199219 3.867188 1.539062 4.753907.515626.265625 1.066407.390625 1.605469.390625 1.285157 0 2.527344-.707032 3.152344-1.929688l2.921875-5.726562c2.578125 1.644531 5.261719 3.128906 8.046875 4.410156.195313.089844.40625.167969.605469.257812l-2.246094 7.65625c-.546875 1.871094.527344 3.835938 2.398438 4.382813.332031.097656.667968.144531.996093.144531 1.53125 0 2.941407-1 3.390625-2.539062l2.074219-7.070313c4.421875 1.476563 9.0625 2.566407 13.882813 3.261719l-1.132813 7.636719c-.285156 1.933593 1.046875 3.730469 2.980469 4.015625.175781.027344.347656.039062.523437.039062 1.722657 0 3.230469-1.261718 3.492188-3.015625l1.175781-7.960937c2.027344.128906 4.0625.21875 6.132812.21875 2.820313 0 5.6875-.136719 8.578126-.378906l.6875 8.945312c.144531 1.851562 1.691406 3.261719 3.519531 3.261719.09375 0 .183593-.003907.277343-.007813 1.945313-.152344 3.402344-1.851562 3.253907-3.796875l-.710938-9.214843c3.679688-.550782 7.394531-1.285157 11.132813-2.214844l2.933594 9.027344c.484374 1.496093 1.871093 2.445312 3.359374 2.445312.363282 0 .730469-.054688 1.089844-.171875 1.859375-.605469 2.875-2.597656 2.273438-4.453125l-2.839844-8.753906c2.828125-.886719 5.535156-1.867188 8.136719-2.929688 0 .003906.003906.003906.003906.007813l6.371094 7.800781c.699219.851562 1.714843 1.296875 2.738281 1.296875.789062 0 1.578125-.261719 2.234375-.796875 1.511719-1.234375 1.738281-3.460938.503906-4.972656l-5.207031-6.371094c3.363281-1.707031 6.480469-3.578125 9.339844-5.605469l6.761718 4.890625c.628907.449219 1.351563.667969 2.070313.667969 1.09375 0 2.175781-.507813 2.867187-1.464844 1.144532-1.582031.789063-3.789062-.796874-4.933593l-5.167969-3.738282c2.605469-2.351562 4.90625-4.875 6.902343-7.546875l8.574219 1.550781c.210938.035157.425781.054688.632813.054688 1.675781 0 3.164062-1.195312 3.472656-2.90625.347656-1.917969-.925781-3.757812-2.847656-4.105469l-5.761719-1.042969c1.46875-2.804687 2.667969-5.78125 3.609375-8.898437l10.304688.265625h.09375c1.910156 0 3.484374-1.523438 3.53125-3.445312.050781-1.949219-1.492188-3.570313-3.441407-3.621094l-8.847656-.230469c.628906-3.75.910156-7.636719.84375-11.621094l7.183594-1.429687c1.914062-.378906 3.15625-2.242188 2.777343-4.15625-.382812-1.914063-2.246093-3.15625-4.15625-2.777344l-6.292968 1.253906c-.480469-4.054687-1.292969-8.160156-2.484375-12.277344-.066407-.234374-.144531-.46875-.214844-.707031l7.839844-2.289062c1.875-.546875 2.953125-2.507813 2.40625-4.382813-.546875-1.871094-2.515625-2.953125-4.382813-2.402344l-8.171875 2.382813c-.820312-2.089844-1.722656-4.148437-2.707031-6.171875l7.730469-4.117188c1.722656-.917968 2.375-3.058593 1.457031-4.78125-.917969-1.726562-3.058594-2.375-4.78125-1.457031l-7.75 4.128907c-1.128906-1.917969-2.332031-3.792969-3.601562-5.621094l7.585937-5.101563c1.621094-1.089843 2.050781-3.285156.960937-4.902343-1.085937-1.621094-3.28125-2.050782-4.902343-.964844l-7.917969 5.320312c-1.679688-2.050781-3.449219-4.023437-5.300781-5.914062l7.039062-5.351563c1.554688-1.183593 1.855469-3.402343.671875-4.953125-1.179687-1.554687-3.398437-1.859375-4.953125-.675781l-7.972656 6.0625c-1.957031-1.699219-3.984375-3.316406-6.078125-4.835937l5.261719-6.726563c1.203125-1.539063.933593-3.757813-.605469-4.960937-1.535156-1.203126-3.757812-.933594-4.960938.605468l-5.601562 7.15625c-2.226562-1.351562-4.519531-2.601562-6.863281-3.742187l4.261719-8.285157c.890624-1.734374.207031-3.867187-1.527344-4.761718-1.738282-.890625-3.867188-.207032-4.761719 1.527344l-4.476563 8.707031c-3.273437-1.25-6.886718-2.40625-10.714843-3.386719l3.34375-7.890625c.761719-1.796875-.078125-3.871094-1.875-4.632813-1.796875-.761718-3.871094.078126-4.632813 1.875l-3.859375 9.097657c-2.601562-.480469-5.261719-.871094-7.945312-1.140625l3.046875-9.417969c.601562-1.859375-.417969-3.851563-2.273438-4.453125-1.855468-.597656-3.851562.417969-4.453125 2.277344l-3.609375 11.15625c-3.285156-.054688-6.550781.09375-9.757812.476562l.191406-7.175781c.054688-1.953125-1.484375-3.578125-3.4375-3.628906-1.941406-.066407-3.574219 1.488281-3.628906 3.4375l-.230469 8.664062c-3.09375.777344-6.070313 1.828125-8.867187 3.199219l-2.382813-7.796875c-.570313-1.867187-2.546875-2.914063-4.414063-2.347656-1.867187.570312-2.917968 2.546875-2.347656 4.414062l2.921875 9.5625c-1.097656.839844-2.160156 1.730469-3.164062 2.710938-1.195313 1.167969-2.390625 2.359375-3.585938 3.574219l-3.484375-6.203126c-.957031-1.703124-3.113281-2.308593-4.8125-1.351562-1.703125.957031-2.308594 3.113281-1.351562 4.8125l4.558594 8.113281c-1.644532 1.8125-3.261719 3.671875-4.828126 5.582031l-6.007812-6.53125c-1.320312-1.433593-3.554688-1.527343-4.992188-.207031-1.4375 1.320313-1.53125 3.558594-.210937 4.996094l6.828125 7.421875c-1.804688 2.5-3.507812 5.085938-5.070312 7.765625-1.640626-.960937-3.0625-2.285156-4.109376-3.871094-1.078124-1.628906-3.273437-2.074219-4.898437-.996093-1.628906 1.078124-2.074219 3.269531-.996094 4.898437 1.699219 2.570313 4.019531 4.707031 6.699219 6.222656-.964844 2.039063-1.84375 4.132813-2.621094 6.277344l-4.316406-2.351563c-1.714844-.929687-3.863281-.296874-4.796875 1.417969-.933594 1.714844-.300781 3.859375 1.417969 4.792969l5.59375 3.046875c-.722656 2.929687-1.25 5.957031-1.558594 9.082031l-6.3125-.460937c-1.945312-.144531-3.636719 1.320312-3.78125 3.269531-.140625 1.945312 1.320312 3.636719 3.269531 3.78125zm44.304688-58.023438c15.347656-14.988281 47.609375-9.8125 65.617187-1.351562 20.632813 9.695312 36.730469 28.5625 43.058594 50.46875 4.746094 16.421875 3.25 32.597656-4.105469 44.375-8.910156 14.261719-25.800781 21.445312-38.402343 24.957031-21.855469 6.097657-42.992188 5.261719-59.523438-2.347656-21.359375-9.835937-36.359375-32.226563-37.335938-55.71875-.597656-14.453125 2.578126-32.933594 30.691407-60.382813zm0 0" data-original="#000000" class="active-path" data-old_color="#000000" fill="#00558C"/></g> </svg>
